<?xml version="1.0" encoding="iso-8859-1"?>
<!-- Generator: Adobe Illustrator 19.1.0, SVG Export Plug-In . SVG Version: 6.00 Build 0)  -->
<svg version="1.1" id="Capa_1" xmlns="http://www.w3.org/2000/svg" xmlns:xlink="http://www.w3.org/1999/xlink" x="0px" y="0px"
	 viewBox="0 0 447 447" style="enable-background:new 0 0 447 447;" xml:space="preserve">
<g>
	<g>
		<path style="fill:#8AD1D6;" d="M223.505,180.25c13.92,0,25.25,11.33,25.25,25.26c0,13.92-11.33,25.25-25.25,25.25
			c-13.93,0-25.26-11.33-25.26-25.25C198.245,191.58,209.575,180.25,223.505,180.25z"/>
		<path style="fill:#73BEBF;" d="M217.005,243.2V260c-10.28-1.21-19.69-5.28-27.43-11.38l11.88-11.88
			C206.005,239.97,211.285,242.22,217.005,243.2z"/>
		<path style="fill:#73BEBF;" d="M192.265,227.55l-11.88,11.88c-6.1-7.74-10.16-17.15-11.38-27.42h16.8
			C186.795,217.72,189.045,223,192.265,227.55z"/>
		<path style="fill:#73BEBF;" d="M180.385,171.59l11.88,11.87c-3.22,4.55-5.47,9.84-6.46,15.55h-16.8
			C170.225,188.73,174.285,179.33,180.385,171.59z"/>
		<path style="fill:#73BEBF;" d="M217.005,151.01v16.8c-5.72,0.99-11,3.24-15.55,6.46l-11.87-11.88
			C197.315,156.29,206.725,152.23,217.005,151.01z"/>
		<path style="fill:#73BEBF;" d="M257.425,162.39l-11.88,11.88c-4.55-3.22-9.83-5.47-15.54-6.46v-16.8
			C240.275,152.23,249.685,156.29,257.425,162.39z"/>
		<path style="fill:#73BEBF;" d="M277.995,199.01h-16.8c-0.98-5.71-3.24-11-6.46-15.55l11.88-11.87
			C272.715,179.33,276.775,188.73,277.995,199.01z"/>
		<path style="fill:#73BEBF;" d="M261.195,212.01h16.8c-1.22,10.27-5.28,19.68-11.38,27.42l-11.88-11.88
			C257.955,223,260.215,217.72,261.195,212.01z"/>
		<path style="fill:#73BEBF;" d="M245.545,236.74l11.88,11.88c-7.74,6.1-17.15,10.17-27.42,11.38v-16.8
			C235.715,242.22,240.995,239.97,245.545,236.74z"/>
		<rect x="93.445" y="411.01" style="fill:#8AD1D6;" width="27.23" height="22.99"/>
		<rect x="326.325" y="411.01" style="fill:#8AD1D6;" width="27.23" height="22.99"/>
		<path style="fill:#8AD1D6;" d="M388.485,13v385.01h-28.43h-40.23h-192.65h-40.23h-28.43V13H388.485z M372.905,35.08
			c0-1.71-0.7-3.38-1.91-4.59c-1.21-1.21-2.88-1.91-4.59-1.91s-3.39,0.7-4.6,1.91c-1.21,1.21-1.9,2.88-1.9,4.59
			c0,1.71,0.69,3.39,1.9,4.6c1.21,1.21,2.89,1.9,4.6,1.9s3.38-0.69,4.59-1.9S372.905,36.79,372.905,35.08z M372.905,83.78
			c0-3.59-2.91-6.5-6.5-6.5s-6.5,2.91-6.5,6.5c0,3.59,2.91,6.5,6.5,6.5S372.905,87.37,372.905,83.78z M372.905,132.47
			c0-3.59-2.91-6.5-6.5-6.5s-6.5,2.91-6.5,6.5s2.91,6.5,6.5,6.5S372.905,136.06,372.905,132.47z M372.905,181.16
			c0-3.59-2.91-6.5-6.5-6.5s-6.5,2.91-6.5,6.5s2.91,6.5,6.5,6.5S372.905,184.75,372.905,181.16z M372.905,229.85
			c0-3.59-2.91-6.5-6.5-6.5s-6.5,2.91-6.5,6.5c0,3.59,2.91,6.5,6.5,6.5S372.905,233.44,372.905,229.85z M372.905,278.55
			c0-3.59-2.91-6.5-6.5-6.5s-6.5,2.91-6.5,6.5c0,3.59,2.91,6.5,6.5,6.5S372.905,282.14,372.905,278.55z M372.905,327.24
			c0-3.59-2.91-6.5-6.5-6.5s-6.5,2.91-6.5,6.5s2.91,6.5,6.5,6.5S372.905,330.83,372.905,327.24z M372.905,375.93
			c0-1.71-0.7-3.38-1.91-4.59s-2.88-1.91-4.59-1.91s-3.39,0.7-4.6,1.91c-1.21,1.21-1.9,2.88-1.9,4.59c0,1.71,0.69,3.39,1.9,4.6
			c1.21,1.21,2.89,1.9,4.6,1.9s3.38-0.69,4.59-1.9S372.905,377.64,372.905,375.93z M344.325,347.35V63.66c0-3.59-2.91-6.5-6.5-6.5
			h-228.65c-3.59,0-6.5,2.91-6.5,6.5v283.69c0,3.59,2.91,6.5,6.5,6.5h228.65C341.415,353.85,344.325,350.94,344.325,347.35z
			 M325.265,35.08c0-3.59-2.91-6.5-6.5-6.5c-3.59,0-6.5,2.91-6.5,6.5c0,3.59,2.91,6.5,6.5,6.5
			C322.355,41.58,325.265,38.67,325.265,35.08z M325.265,375.93c0-3.59-2.91-6.5-6.5-6.5c-3.59,0-6.5,2.91-6.5,6.5s2.91,6.5,6.5,6.5
			C322.355,382.43,325.265,379.52,325.265,375.93z M277.635,35.08c0-3.59-2.91-6.5-6.5-6.5s-6.5,2.91-6.5,6.5
			c0,3.59,2.91,6.5,6.5,6.5S277.635,38.67,277.635,35.08z M277.635,375.93c0-3.59-2.91-6.5-6.5-6.5s-6.5,2.91-6.5,6.5
			s2.91,6.5,6.5,6.5S277.635,379.52,277.635,375.93z M230.005,35.08c0-3.59-2.91-6.5-6.51-6.5c-3.58,0-6.49,2.91-6.49,6.5
			c0,3.59,2.91,6.5,6.49,6.5C227.095,41.58,230.005,38.67,230.005,35.08z M229.995,375.93c0-3.59-2.91-6.5-6.49-6.5
			c-3.6,0-6.5,2.91-6.5,6.5s2.9,6.5,6.5,6.5C227.085,382.43,229.995,379.52,229.995,375.93z M182.365,35.08c0-3.59-2.91-6.5-6.5-6.5
			c-3.59,0-6.5,2.91-6.5,6.5c0,3.59,2.91,6.5,6.5,6.5C179.455,41.58,182.365,38.67,182.365,35.08z M182.365,375.93
			c0-3.59-2.91-6.5-6.5-6.5c-3.59,0-6.5,2.91-6.5,6.5s2.91,6.5,6.5,6.5C179.455,382.43,182.365,379.52,182.365,375.93z
			 M134.735,35.08c0-3.59-2.91-6.5-6.5-6.5c-3.59,0-6.5,2.91-6.5,6.5c0,3.59,2.91,6.5,6.5,6.5
			C131.825,41.58,134.735,38.67,134.735,35.08z M134.735,375.93c0-3.59-2.91-6.5-6.5-6.5c-3.59,0-6.5,2.91-6.5,6.5s2.91,6.5,6.5,6.5
			C131.825,382.43,134.735,379.52,134.735,375.93z M87.095,35.08c0-1.71-0.69-3.38-1.9-4.59c-1.21-1.21-2.89-1.91-4.6-1.91
			s-3.38,0.7-4.59,1.91c-1.21,1.21-1.91,2.88-1.91,4.59c0,1.71,0.7,3.39,1.91,4.6s2.88,1.9,4.59,1.9s3.39-0.69,4.6-1.9
			S87.095,36.79,87.095,35.08z M87.095,375.93c0-1.71-0.69-3.38-1.9-4.59s-2.89-1.91-4.6-1.91s-3.38,0.7-4.59,1.91
			s-1.91,2.88-1.91,4.59c0,1.71,0.7,3.39,1.91,4.6s2.88,1.9,4.59,1.9s3.39-0.69,4.6-1.9S87.095,377.64,87.095,375.93z M87.095,83.77
			c0-3.59-2.91-6.49-6.5-6.49c-3.59,0-6.5,2.9-6.5,6.49c0,3.59,2.91,6.51,6.5,6.51C84.185,90.28,87.095,87.36,87.095,83.77z
			 M87.095,132.47c0-3.59-2.91-6.5-6.5-6.5c-3.59,0-6.5,2.91-6.5,6.5s2.91,6.5,6.5,6.5C84.185,138.97,87.095,136.06,87.095,132.47z
			 M87.095,181.16c0-3.59-2.91-6.5-6.5-6.5c-3.59,0-6.5,2.91-6.5,6.5s2.91,6.5,6.5,6.5C84.185,187.66,87.095,184.75,87.095,181.16z
			 M87.095,229.85c0-3.59-2.91-6.5-6.5-6.5c-3.59,0-6.5,2.91-6.5,6.5c0,3.59,2.91,6.5,6.5,6.5
			C84.185,236.35,87.095,233.44,87.095,229.85z M87.095,278.55c0-3.59-2.91-6.5-6.5-6.5c-3.59,0-6.5,2.91-6.5,6.5
			c0,3.59,2.91,6.5,6.5,6.5C84.185,285.05,87.095,282.14,87.095,278.55z M87.095,327.24c0-3.59-2.91-6.5-6.5-6.5
			c-3.59,0-6.5,2.91-6.5,6.5s2.91,6.5,6.5,6.5C84.185,333.74,87.095,330.83,87.095,327.24z"/>
		<path style="fill:#8AD1D6;" d="M331.325,70.16v270.69h-215.65V70.16H331.325z M291.395,205.51c0-37.44-30.46-67.9-67.89-67.9
			c-37.44,0-67.9,30.46-67.9,67.9s30.46,67.89,67.9,67.89C260.935,273.4,291.395,242.95,291.395,205.51z"/>
		<path style="fill:#333333;" d="M401.485,6.5v398.01c0,3.59-2.91,6.5-6.5,6.5h-28.43v29.49c0,3.59-2.91,6.5-6.5,6.5h-40.23
			c-3.59,0-6.5-2.91-6.5-6.5v-29.49h-179.65v29.49c0,3.59-2.91,6.5-6.5,6.5h-40.23c-3.59,0-6.5-2.91-6.5-6.5v-29.49h-28.43
			c-3.59,0-6.5-2.91-6.5-6.5V6.5c0-3.59,2.91-6.5,6.5-6.5h342.97C398.575,0,401.485,2.91,401.485,6.5z M388.485,398.01V13H58.515
			v385.01h28.43h40.23h192.65h40.23H388.485z M353.555,434v-22.99h-27.23V434H353.555z M120.675,434v-22.99h-27.23V434H120.675z"/>
		<path style="fill:#333333;" d="M370.995,30.49c1.21,1.21,1.91,2.88,1.91,4.59c0,1.71-0.7,3.39-1.91,4.6s-2.88,1.9-4.59,1.9
			s-3.39-0.69-4.6-1.9c-1.21-1.21-1.9-2.89-1.9-4.6c0-1.71,0.69-3.38,1.9-4.59c1.21-1.21,2.89-1.91,4.6-1.91
			S369.785,29.28,370.995,30.49z"/>
		<circle style="fill:#333333;" cx="366.405" cy="83.78" r="6.5"/>
		<circle style="fill:#333333;" cx="366.405" cy="132.47" r="6.5"/>
		<circle style="fill:#333333;" cx="366.405" cy="181.16" r="6.5"/>
		<circle style="fill:#333333;" cx="366.405" cy="229.85" r="6.5"/>
		<circle style="fill:#333333;" cx="366.405" cy="278.55" r="6.5"/>
		<circle style="fill:#333333;" cx="366.405" cy="327.24" r="6.5"/>
		<path style="fill:#333333;" d="M370.995,371.34c1.21,1.21,1.91,2.88,1.91,4.59c0,1.71-0.7,3.39-1.91,4.6s-2.88,1.9-4.59,1.9
			s-3.39-0.69-4.6-1.9c-1.21-1.21-1.9-2.89-1.9-4.6c0-1.71,0.69-3.38,1.9-4.59c1.21-1.21,2.89-1.91,4.6-1.91
			S369.785,370.13,370.995,371.34z"/>
		<path style="fill:#333333;" d="M344.325,63.66v283.69c0,3.59-2.91,6.5-6.5,6.5h-228.65c-3.59,0-6.5-2.91-6.5-6.5V63.66
			c0-3.59,2.91-6.5,6.5-6.5h228.65C341.415,57.16,344.325,60.07,344.325,63.66z M331.325,340.85V70.16h-215.65v270.69H331.325z"/>
		<circle style="fill:#333333;" cx="318.765" cy="35.08" r="6.5"/>
		<circle style="fill:#333333;" cx="318.765" cy="375.93" r="6.5"/>
		<circle style="fill:#333333;" cx="271.135" cy="35.08" r="6.5"/>
		<circle style="fill:#333333;" cx="271.135" cy="375.93" r="6.5"/>
		<path style="fill:#333333;" d="M223.505,137.61c37.43,0,67.89,30.46,67.89,67.9s-30.46,67.89-67.89,67.89
			c-37.44,0-67.9-30.45-67.9-67.89S186.065,137.61,223.505,137.61z M261.195,199.01h16.8c-1.22-10.28-5.28-19.68-11.38-27.42
			l-11.88,11.87C257.955,188.01,260.215,193.3,261.195,199.01z M277.995,212.01h-16.8c-0.98,5.71-3.24,10.99-6.46,15.54l11.88,11.88
			C272.715,231.69,276.775,222.28,277.995,212.01z M245.545,174.27l11.88-11.88c-7.74-6.1-17.15-10.16-27.42-11.38v16.8
			C235.715,168.8,240.995,171.05,245.545,174.27z M257.425,248.62l-11.88-11.88c-4.55,3.23-9.83,5.48-15.54,6.46V260
			C240.275,258.79,249.685,254.72,257.425,248.62z M248.755,205.51c0-13.93-11.33-25.26-25.25-25.26
			c-13.93,0-25.26,11.33-25.26,25.26c0,13.92,11.33,25.25,25.26,25.25C237.425,230.76,248.755,219.43,248.755,205.51z M217.005,260
			v-16.8c-5.72-0.98-11-3.23-15.55-6.46l-11.88,11.88C197.315,254.72,206.725,258.79,217.005,260z M217.005,167.81v-16.8
			c-10.28,1.22-19.69,5.28-27.42,11.38l11.87,11.88C206.005,171.05,211.285,168.8,217.005,167.81z M180.385,239.43l11.88-11.88
			c-3.22-4.55-5.47-9.83-6.46-15.54h-16.8C170.225,222.28,174.285,231.69,180.385,239.43z M192.265,183.46l-11.88-11.87
			c-6.1,7.74-10.16,17.14-11.38,27.42h16.8C186.795,193.3,189.045,188.01,192.265,183.46z"/>
		<path style="fill:#333333;" d="M223.495,28.58c3.6,0,6.51,2.91,6.51,6.5c0,3.59-2.91,6.5-6.51,6.5c-3.58,0-6.49-2.91-6.49-6.5
			C217.005,31.49,219.915,28.58,223.495,28.58z"/>
		<path style="fill:#333333;" d="M223.505,369.43c3.58,0,6.49,2.91,6.49,6.5s-2.91,6.5-6.49,6.5c-3.6,0-6.5-2.91-6.5-6.5
			S219.905,369.43,223.505,369.43z"/>
		<circle style="fill:#333333;" cx="175.865" cy="35.08" r="6.5"/>
		<circle style="fill:#333333;" cx="175.865" cy="375.93" r="6.5"/>
		<circle style="fill:#333333;" cx="128.235" cy="35.08" r="6.5"/>
		<circle style="fill:#333333;" cx="128.235" cy="375.93" r="6.5"/>
		<path style="fill:#333333;" d="M85.195,30.49c1.21,1.21,1.9,2.88,1.9,4.59c0,1.71-0.69,3.39-1.9,4.6s-2.89,1.9-4.6,1.9
			s-3.38-0.69-4.59-1.9s-1.91-2.89-1.91-4.6c0-1.71,0.7-3.38,1.91-4.59c1.21-1.21,2.88-1.91,4.59-1.91S83.985,29.28,85.195,30.49z"
			/>
		<path style="fill:#333333;" d="M85.195,371.34c1.21,1.21,1.9,2.88,1.9,4.59c0,1.71-0.69,3.39-1.9,4.6s-2.89,1.9-4.6,1.9
			s-3.38-0.69-4.59-1.9s-1.91-2.89-1.91-4.6c0-1.71,0.7-3.38,1.91-4.59s2.88-1.91,4.59-1.91S83.985,370.13,85.195,371.34z"/>
		<path style="fill:#333333;" d="M80.595,77.28c3.59,0,6.5,2.9,6.5,6.49c0,3.59-2.91,6.51-6.5,6.51c-3.59,0-6.5-2.92-6.5-6.51
			C74.095,80.18,77.005,77.28,80.595,77.28z"/>
		<circle style="fill:#333333;" cx="80.595" cy="132.47" r="6.5"/>
		<circle style="fill:#333333;" cx="80.595" cy="181.16" r="6.5"/>
		<circle style="fill:#333333;" cx="80.595" cy="229.85" r="6.5"/>
		<circle style="fill:#333333;" cx="80.595" cy="278.55" r="6.5"/>
		<circle style="fill:#333333;" cx="80.595" cy="327.24" r="6.5"/>
	</g>
	<g>
		<polygon style="fill:#FFFFFF;" points="211.165,70.16 115.675,190.77 115.675,169.83 194.585,70.16 		"/>
		<path style="fill:#FFFFFF;" d="M199.755,269.11l-56.81,71.74h-16.58l61.45-77.61h0.01
			C191.575,265.58,195.565,267.55,199.755,269.11z"/>
		<path style="fill:#FFFFFF;" d="M331.325,81.98v20.94l-51.38,64.9c-2.47-3.7-5.3-7.14-8.44-10.28L331.325,81.98z"/>
		<path style="fill:#FFFFFF;" d="M234.915,70.16l-32.43,40.96c-1.28,1.62-3.18,2.46-5.1,2.46c-1.42,0-2.84-0.46-4.03-1.4
			c-2.82-2.23-3.29-6.32-1.06-9.13l26.04-32.89H234.915z"/>
		<path style="fill:#FFFFFF;" d="M289.085,287.86l-41.95,52.99h-16.58l48.34-61.06c2.23-2.82,6.32-3.29,9.13-1.06
			C290.845,280.95,291.315,285.04,289.085,287.86z"/>
		<path style="fill:#FFFFFF;" d="M144.315,222.24l-28.64,36.17v-20.94l18.45-23.3c2.23-2.82,6.31-3.29,9.13-1.06
			C146.065,215.33,146.545,219.42,144.315,222.24z"/>
		<path style="fill:#FFFFFF;" d="M331.325,250.49v20.94l-30.33,38.31c-1.28,1.62-3.18,2.46-5.1,2.46c-1.41,0-2.84-0.46-4.03-1.4
			c-2.82-2.23-3.29-6.32-1.06-9.13L331.325,250.49z"/>
	</g>
</g>
<g>
</g>
<g>
</g>
<g>
</g>
<g>
</g>
<g>
</g>
<g>
</g>
<g>
</g>
<g>
</g>
<g>
</g>
<g>
</g>
<g>
</g>
<g>
</g>
<g>
</g>
<g>
</g>
<g>
</g>
</svg>
